<?xml version="1.0" encoding="UTF-8" standalone="no"?>
<svg
   id="Layer_1"
   data-name="Layer 1"
   viewBox="0 0 4727.3701 1779.1984"
   version="1.1"
   sodipodi:docname="dentcreativeslogo.svg"
   width="4727.3701"
   height="1779.1984"
   inkscape:version="1.1.1 (3bf5ae0d25, 2021-09-20)"
   xmlns:inkscape="http://www.inkscape.org/namespaces/inkscape"
   xmlns:sodipodi="http://sodipodi.sourceforge.net/DTD/sodipodi-0.dtd"
   xmlns="http://www.w3.org/2000/svg"
   xmlns:svg="http://www.w3.org/2000/svg"
   xmlns:rdf="http://www.w3.org/1999/02/22-rdf-syntax-ns#"
   xmlns:cc="http://creativecommons.org/ns#"
   xmlns:dc="http://purl.org/dc/elements/1.1/">
  <sodipodi:namedview
     id="namedview37"
     pagecolor="#ffffff"
     bordercolor="#666666"
     borderopacity="1.0"
     inkscape:pageshadow="2"
     inkscape:pageopacity="0.0"
     inkscape:pagecheckerboard="0"
     showgrid="false"
     fit-margin-top="1"
     fit-margin-left="1"
     fit-margin-right="1"
     fit-margin-bottom="1"
     lock-margins="true"
     inkscape:zoom="0.14033333"
     inkscape:cx="2365.7957"
     inkscape:cy="1460.8076"
     inkscape:window-width="1920"
     inkscape:window-height="1046"
     inkscape:window-x="-11"
     inkscape:window-y="-11"
     inkscape:window-maximized="1"
     inkscape:current-layer="Layer_1" />
  <defs
     id="defs4">
    <style
       id="style2">.cls-1{fill:#233343;}.cls-2{fill:#168d6d;}</style>
  </defs>
  <title
     id="title6">DentCreativesLogo</title>
  <g
     id="g870"
     transform="translate(-636.32,-2110.43)">
    <path
       class="cls-1"
       d="m 2354.53,3730.65 a 73.46,73.46 0 0 0 -12.3,-20.41 77.7,77.7 0 0 0 -17.51,-15.2 80.18,80.18 0 0 0 -21.27,-9.48 85.51,85.51 0 0 0 -23.4,-3.25 81.31,81.31 0 0 0 -32.37,6.49 82.82,82.82 0 0 0 -26.39,17.85 86.15,86.15 0 0 0 0,120.6 82.82,82.82 0 0 0 26.39,17.85 81.13,81.13 0 0 0 32.37,6.49 86.48,86.48 0 0 0 23.32,-3.16 80,80 0 0 0 21.18,-9.31 75.83,75.83 0 0 0 17.51,-15.11 73.22,73.22 0 0 0 12.3,-20.42 h 43.73 a 103.57,103.57 0 0 1 -17.85,36.3 119.37,119.37 0 0 1 -28.36,26.56 131.14,131.14 0 0 1 -71.83,21.87 130,130 0 0 1 -33.48,-4.27 125.08,125.08 0 0 1 -30,-12.22 129.52,129.52 0 0 1 -25.45,-19 117.29,117.29 0 0 1 -19.65,-24.51 122.85,122.85 0 0 1 -12.64,-29 118.78,118.78 0 0 1 0,-64.91 123.21,123.21 0 0 1 12.64,-29 117.81,117.81 0 0 1 19.65,-24.51 126.33,126.33 0 0 1 55.43,-31 129.59,129.59 0 0 1 33.48,-4.27 132.93,132.93 0 0 1 37.07,5.38 126.13,126.13 0 0 1 34.76,16.05 116.79,116.79 0 0 1 28.36,26.65 104.94,104.94 0 0 1 17.85,37.15 z"
       id="path8" />
    <path
       class="cls-1"
       d="m 2711,3802.57 h -49.2 v 80.8 h -42.5 v -232.32 h 100.27 a 92.53,92.53 0 0 1 32.37,5.47 75.49,75.49 0 0 1 25.53,15.46 69.58,69.58 0 0 1 16.75,24 78,78 0 0 1 6,30.91 83.41,83.41 0 0 1 -3.25,23.66 70.56,70.56 0 0 1 -9.31,19.91 68.11,68.11 0 0 1 -14.66,15.54 76.25,76.25 0 0 1 -19.22,10.76 l 51.76,86.61 h -48.86 z m 7.17,-36.73 a 42.38,42.38 0 0 0 15.55,-2.81 38,38 0 0 0 12.46,-7.86 36.41,36.41 0 0 0 8.37,-12.22 42.5,42.5 0 0 0 0,-31.77 38.35,38.35 0 0 0 -8.37,-12.38 37.28,37.28 0 0 0 -12.63,-8.12 42.51,42.51 0 0 0 -15.72,-2.9 h -56 v 78.06 z"
       id="path10" />
    <path
       class="cls-1"
       d="m 3015.43,3651.05 h 159.2 V 3688 H 3058 v 62.18 h 100.78 v 36.55 H 3058 v 60 h 118.21 v 36.73 h -160.78 z"
       id="path12" />
    <path
       class="cls-1"
       d="m 3538.82,3839.12 h -107.11 l -18.27,44.25 h -44.93 l 96.68,-232.49 h 40.31 l 96.69,232.49 h -45.1 z m -92.08,-36.55 h 76.87 l -36.89,-89.68 -1.37,-6 h -0.17 l -1.37,6 z"
       id="path14" />
    <path
       class="cls-1"
       d="m 3831.08,3687.78 h -69 v -36.73 h 180.72 v 36.73 h -69.18 v 195.59 h -42.54 z"
       id="path16" />
    <path
       class="cls-1"
       d="M 4153.42,3651.05 H 4196 v 232.32 h -42.53 z"
       id="path18" />
    <path
       class="cls-1"
       d="m 4466.53,3823.07 h 0.68 l 5.3,-12.47 119.22,-159.72 h 49.71 L 4469.6,3883.37 H 4425 l -0.34,-232.49 h 41.85 z"
       id="path20" />
    <path
       class="cls-1"
       d="m 4808.88,3651.05 h 159.2 V 3688 h -116.67 v 62.18 h 100.79 v 36.55 h -100.79 v 60 h 118.21 v 36.73 h -160.74 z"
       id="path22" />
    <path
       class="cls-1"
       d="m 5214.06,3813.5 a 31.23,31.23 0 0 0 3.76,15 37.73,37.73 0 0 0 10.59,12.22 52.85,52.85 0 0 0 16.4,8.2 70.9,70.9 0 0 0 21.18,3 q 27.67,0 40.66,-8.79 12.99,-8.79 13,-25 0,-9.9 -4.44,-16.14 a 35.19,35.19 0 0 0 -12.56,-10.51 90.36,90.36 0 0 0 -19.39,-7.17 q -11.27,-2.91 -24.76,-6 l -16,-3.33 a 155.72,155.72 0 0 1 -17.43,-4.7 120.63,120.63 0 0 1 -17,-7.08 57,57 0 0 1 -14.43,-10.42 49.5,49.5 0 0 1 -10.08,-14.7 q -3.84,-8.45 -3.84,-20.07 a 80.89,80.89 0 0 1 5.12,-29.21 56.81,56.81 0 0 1 16.23,-22.89 q 11.1,-9.55 28.53,-14.94 17.43,-5.39 42,-5.38 19.64,0 34.93,5 a 74.27,74.27 0 0 1 25.88,14.27 60.88,60.88 0 0 1 16.14,22.12 71.64,71.64 0 0 1 5.55,28.61 h -42.7 a 30.88,30.88 0 0 0 -2.73,-13 29.15,29.15 0 0 0 -8.12,-10.42 39.44,39.44 0 0 0 -13.58,-7 64.19,64.19 0 0 0 -19.13,-2.57 q -13.48,0 -22.29,2.74 a 40.11,40.11 0 0 0 -14,7.09 23.45,23.45 0 0 0 -7.26,10 33.41,33.41 0 0 0 -2.05,11.44 20.35,20.35 0 0 0 4.27,13.07 33.3,33.3 0 0 0 11.79,9.05 82.9,82.9 0 0 0 17.85,6.07 q 10.34,2.4 22.63,4.1 16.57,3.59 31.78,8.28 a 97.75,97.75 0 0 1 26.73,12.65 60.29,60.29 0 0 1 18.45,20.15 q 6.91,12.21 6.92,30.83 0,16.92 -7.09,30.07 a 63.61,63.61 0 0 1 -19.91,22.12 q -12.81,9 -30.74,13.66 a 157.17,157.17 0 0 1 -39.8,4.7 q -24.09,0 -41.77,-6.66 -17.68,-6.66 -29.21,-17.34 a 68.26,68.26 0 0 1 -17.08,-24.08 70.29,70.29 0 0 1 -5.55,-27.08 z"
       id="path24" />
    <path
       class="cls-1"
       d="m 2030.22,2996.19 q 0,-111.69 41.52,-210.07 41.52,-98.38 116.16,-171.51 74.63,-73.16 177.44,-115.67 102.81,-42.51 224.41,-42.5 122.57,0 225.88,42.5 103.31,42.5 177.95,115.67 74.63,73.17 116.65,171.51 42.02,98.34 42,210.07 0,24.73 -2,39.55 -2,14.82 -4,28.66 h -879.74 q 11.85,62.29 43,112.7 31.15,50.41 75.13,85.52 a 340.33,340.33 0 0 0 97.38,54.38 320.79,320.79 0 0 0 109.74,19.28 q 89,0 157.18,-39.54 68.18,-39.54 103.8,-103.8 h 260 q -24.72,67.23 -72.16,129 -47.44,61.77 -114.19,109.23 -66.72,47.46 -151.24,75.63 -84.52,28.17 -185.38,28.2 -121.61,0 -224.41,-42.5 -102.8,-42.5 -177.44,-115.7 -74.66,-73.15 -116.16,-171 -41.5,-97.85 -41.52,-209.61 z m 561.51,-347 q -61.3,0 -113.2,18.29 -51.9,18.29 -92.92,50.91 a 313.58,313.58 0 0 0 -69.69,77.6 340.36,340.36 0 0 0 -42.51,98.36 h 625.76 a 358.42,358.42 0 0 0 -41.52,-98.36 311.6,311.6 0 0 0 -67.22,-77.6 303.74,303.74 0 0 0 -89.43,-50.89 q -50,-18.28 -109.27,-18.29 z"
       id="path26" />
    <path
       class="cls-1"
       d="m 4432.44,3504.32 h -242.2 V 2961.6 q 0,-81.06 -17.8,-137.42 -17.8,-56.36 -50.44,-91.93 -32.62,-35.6 -79.58,-51.41 -46.96,-15.81 -105.25,-15.84 -63.28,0 -116.16,23.24 a 270.12,270.12 0 0 0 -91.44,65.24 q -38.57,42 -59.81,99.85 -21.24,57.85 -21.26,127 v 523.94 H 3408.28 V 2487.08 H 3604 l 17.79,102.81 A 522,522 0 0 1 3693,2538 a 578.11,578.11 0 0 1 84.52,-42.51 550.27,550.27 0 0 1 94.41,-28.67 484.5,484.5 0 0 1 99.85,-10.38 q 118.62,0 205.62,33.12 87,33.12 143.84,96.87 56.82,63.77 84,157.19 27.18,93.42 27.19,213 z"
       id="path28" />
    <path
       class="cls-1"
       d="m 4834.78,2198.42 176,-1 v 289.65 H 5335 v 207.6 h -325.24 v 416.19 q 0,61.3 14.33,101.33 14.33,40.03 38.56,63.27 a 134.61,134.61 0 0 0 56.84,32.62 248.64,248.64 0 0 0 69.2,9.39 h 174 l -2,197.71 H 5166 q -82.06,0 -154.22,-16.8 -72.16,-16.8 -125.54,-61.79 -53.38,-45 -84.53,-123.08 -31.15,-78.08 -31.13,-200.68 v -418.15 h -170 v -185.85 l 164.1,-45.48 z"
       id="path30" />
    <path
       class="cls-1"
       d="M 1519.13,2111.43 V 2585 q -62.28,-56.35 -147.3,-92.93 -85.02,-36.58 -194.75,-36.57 -121.59,0 -221.44,42.51 -99.85,42.51 -170.52,116.1 -70.7,73.66 -109.24,172 -38.54,98.34 -38.56,210.07 0,111.73 39.55,210.07 39.55,98.34 110.72,171.52 71.17,73.18 171.52,115.66 100.35,42.48 221.89,42.57 57.32,0 108.74,-11.87 a 531.61,531.61 0 0 0 96.88,-32.13 477.23,477.23 0 0 0 83.53,-47.45 499.46,499.46 0 0 0 68.71,-58.82 l 14.83,118.63 h 205.62 V 2111.43 Z m -320.79,1248.74 c -201,0 -364,-163 -364,-364 0,-201 163,-364 364,-364 201,0 364,163 364,364 0,201 -162.99,364 -364,364 z"
       id="path32" />
    <circle
       class="cls-2"
       cx="1198.34"
       cy="2996.2"
       r="224.39999"
       id="circle34" />
  </g>
  <metadata
     id="metadata854">
    <rdf:RDF>
      <cc:Work
         rdf:about="">
        <dc:title>DentCreativesLogo</dc:title>
      </cc:Work>
    </rdf:RDF>
  </metadata>
</svg>
